Coordinates
version=1
nRows=14
nColumns=24
inDegrees=yes

Units are S.I. units (second, meters, Newtons, ...)
Angles are in degrees.

endheader
time	pelvis_tilt	pelvis_list	pelvis_rotation	pelvis_tx	pelvis_ty	pelvis_tz	hip_flexion_r	hip_adduction_r	hip_rotation_r	knee_angle_r	ankle_angle_r	subtalar_angle_r	mtp_angle_r	hip_flexion_l	hip_adduction_l	hip_rotation_l	knee_angle_l	ankle_angle_l	subtalar_angle_l	mtp_angle_l	lumbar_extension	lumbar_bending	lumbar_rotation
      1.28333333	     -0.34181945	      1.74969538	     -1.22250180	      0.19868330	      1.04411041	      0.29752339	     17.27142116	     -3.63731061	     -6.49024393	    -64.56420603	     -6.97225198	     -1.74147639	      7.47573773	      4.37718062	      5.43473088	      5.48844994	     -1.65520456	     -2.11111733	    -12.60870860	     -5.70410964	     -6.77864931	     -3.31238493	      1.92384110
      1.28750000	     -0.38448483	      1.54468032	     -1.25024358	      0.20366155	      1.04479503	      0.29723831	     17.78420654	     -3.44011688	     -6.49289528	    -64.10372966	     -6.50276603	     -2.42578574	      7.43879434	      3.99776235	      5.23275357	      5.56341338	     -1.43464224	     -1.99677507	    -12.63874799	     -5.71961251	     -6.76039196	     -3.01460899	      1.75736552
      1.29166667	     -0.40245702	      1.33086269	     -1.28039093	      0.20863912	      1.04550291	      0.29695655	     18.24497307	     -3.23252974	     -6.49784053	    -63.56887518	     -5.98004513	     -3.04775450	      7.39003475	      3.59334542	      5.02174597	      5.61892962	     -1.21622453	     -1.90273629	    -12.68975411	     -5.73989285	     -6.76895600	     -2.70675505	      1.65056002
      1.29583333	     -0.43412297	      1.12133095	     -1.30968464	      0.21361531	      1.04616192	      0.29667797	     18.69998553	     -3.02605206	     -6.50146101	    -62.96661695	     -5.45964541	     -3.65415159	      7.33063851	      3.20875535	      4.81585921	      5.66757541	     -1.00759267	     -1.81153891	    -12.74496075	     -5.76288788	     -6.75869681	     -2.41815561	      1.55856857
      1.30000000	     -0.46016648	      0.90680349	     -1.33949870	      0.21859599	      1.04679856	      0.29640109	     19.12613183	     -2.81206714	     -6.50893851	    -62.29124051	     -4.98164371	     -4.27481734	      7.23834062	      2.81196929	      4.60509335	      5.72136371	     -0.78570125	     -1.71657628	    -12.81813413	     -5.79601787	     -6.74181096	     -2.10692842	      1.45366667
      1.30416667	     -0.48266751	      0.67556103	     -1.35759891	      0.22355371	      1.04743094	      0.29612538	     19.51963286	     -2.57527120	     -6.52186368	    -61.53633742	     -4.49813954	     -4.84847845	      7.14358900	      2.42500192	      4.37595100	      5.77353283	     -0.58963277	     -1.62578090	    -12.88007779	     -5.82859041	     -6.74493425	     -1.79614250	      1.36788145
      1.30833333	     -0.50387523	      0.45830438	     -1.38626072	      0.22851466	      1.04800605	      0.29587300	     19.89745793	     -2.34846867	     -6.52083350	    -60.72786470	     -4.05617871	     -5.43718731	      7.00379269	      2.02626959	      4.16094785	      5.83956269	     -0.37222805	     -1.53169216	    -12.96200665	     -5.87378857	     -6.73811130	     -1.48273382	      1.26524062
      1.31250000	     -0.52136867	      0.23569110	     -1.39561610	      0.23343709	      1.04855837	      0.29559169	     20.24734417	     -2.11982932	     -6.53439549	    -59.86096021	     -3.53657911	     -5.91012733	      5.69935372	      1.61855797	      3.94484930	      6.02508382	     -0.13772186	     -1.52082221	    -13.30368206	     -6.29904324	     -6.75889698	     -1.17108316	      1.08968580
      1.31666667	     -0.53579076	     -0.00442192	     -1.40475010	      0.23836663	      1.04911464	      0.29533430	     20.56178444	     -1.86365465	     -6.54376422	    -58.90085279	     -3.12966878	     -6.41625704	      5.63561874	      1.24625328	      3.70444706	      6.00397893	      0.01823616	     -1.39853926	    -13.22211151	     -6.31891382	     -6.76823427	     -0.84072136	      1.08258879
      1.32083333	     -0.56509548	     -0.23229551	     -1.41532948	      0.24328640	      1.04959492	      0.29509103	     20.87592461	     -1.61713012	     -6.54523952	    -57.88856186	     -2.75111292	     -6.90466175	      5.55273608	      0.88379045	      3.47717442	      6.03286555	      0.18765593	     -1.26575216	    -13.23388399	     -6.34190107	     -6.76140495	     -0.52516498	      1.01901455
      1.32500000	     -0.58307152	     -0.44876433	     -1.41922978	      0.24818423	      1.05004345	      0.29485133	     21.15808740	     -1.38180085	     -6.54400734	    -56.82209361	     -2.38590629	     -7.34814297	      5.46012640	      0.51298785	      3.26295366	      6.07854975	      0.35421747	     -1.15294283	    -13.28456926	     -6.36646487	     -6.77488815	     -0.22081585	      0.94300739
      1.32916667	     -0.59134915	     -0.66889468	     -1.42221893	      0.25310122	      1.05047578	      0.29462285	     21.40217059	     -1.13926315	     -6.54067245	    -55.68300388	     -2.10910250	     -7.81110549	      5.31328477	      0.11490279	      3.04309058	      6.16341324	      0.55566654	     -1.04510914	    -13.37011204	     -6.40356252	     -6.77793810	      0.07301925	      0.83548313
      1.33333333	     -0.60081662	     -0.88105240	     -1.41000804	      0.25795979	      1.05086476	      0.29437590	     21.63010869	     -0.90880003	     -6.54295338	    -54.49714574	     -1.79144835	     -8.17946759	      5.18649551	     -0.25050451	      2.83441255	      6.21833335	      0.70065594	     -0.94911182	    -13.44899319	     -6.43517991	     -6.82019614	      0.37531666	      0.76318175
      1.33750000	     -0.59464027	     -1.08003297	     -1.41122645	      0.26282152	      1.05122524	      0.29420299	     21.82122962	     -0.67558570	     -6.51953068	    -53.25007696	     -1.57295829	     -8.65869296	      4.87755002	     -0.65754010	      2.63462332	      6.32160958	      0.89931001	     -0.88035283	    -13.60465893	     -6.51113475	     -6.88163717	      0.63118435	      0.62304342
